<?xml version="1.0" encoding="UTF-8"?>
<!-- Generator: Adobe Illustrator 15.0.2, SVG Export Plug-In . SVG Version: 6.00 Build 0)  -->
<!DOCTYPE svg PUBLIC "-//W3C//DTD SVG 1.1//EN" "http://www.w3.org/Graphics/SVG/1.1/DTD/svg11.dtd">
<svg xmlns="http://www.w3.org/2000/svg" xmlns:xlink="http://www.w3.org/1999/xlink" version="1.1" id="Layer_1" x="0px" y="0px" width="1024px" height="1024px" viewBox="0 0 1024 1024" enable-background="new 0 0 1024 1024" xml:space="preserve">
<g>
	<path d="M1018,930.6L997,856.4C982.4,805,927,763,873.6,763H148c-53.4,0-108.6,42-122.4,93.8L5.8,929.6   C-8,981.2,24.2,1023.4,77.6,1023.4l869.6,0.6C1000.6,1024.2,1032.4,982.2,1018,930.6z" fill="#000000"/>
	<path d="M65.8,706h892.4c23.399,0,42.2-18.8,42.2-42.2V42.2C1000.4,19,981.6,0,958.2,0H65.8C42.4,0,23.6,19,23.6,42.2v621.6   C23.6,687.2,42.4,706.2,65.8,706z M108,84.6h808v537H108V84.6z" fill="#000000"/>
</g>
</svg>
