<?xml version="1.0" encoding="UTF-8"?>
<svg xmlns="http://www.w3.org/2000/svg" height="1000" width="1046.875"><path d="M0 793.088v-508.496q0 -35.136 24.888 -59.78t60.512 -24.644h28.792q2.44 -32.696 26.84 -55.388t58.072 -22.692h190.32q33.184 0 57.584 22.692t26.84 55.388h350.872q35.136 0 60.268 24.644t25.132 59.78v84.912h65.88q35.136 0 55.388 24.888t13.42 60.024l-98.576 338.672q-6.344 35.136 -36.356 60.024t-65.636 24.888h-758.84q-35.624 0 -60.512 -24.888t-24.888 -60.024zm124.928 0h719.312q4.392 0 10.98 -5.124t7.076 -10.492l1.952 -7.808 91.744 -315.248h-719.312q-4.392 0 -10.98 5.124t-7.076 10.492l-2.44 7.808z" fill="#000000"/></svg>
